<?xml version="1.0" encoding="utf-8"?>
<!-- Generator: Adobe Illustrator 16.0.2, SVG Export Plug-In . SVG Version: 6.00 Build 0)  -->
<!DOCTYPE svg PUBLIC "-//W3C//DTD SVG 1.1//EN" "http://www.w3.org/Graphics/SVG/1.1/DTD/svg11.dtd">
<svg version="1.1" id="圖層_1" xmlns="http://www.w3.org/2000/svg" xmlns:xlink="http://www.w3.org/1999/xlink" x="0px" y="0px"
	 width="276.182px" height="70.25px" viewBox="0 0 276.182 70.25" enable-background="new 0 0 276.182 70.25" xml:space="preserve">
<g>
	<path fill-rule="evenodd" clip-rule="evenodd" fill="#3F0D81" d="M196.407,21.419c4.055,0,7.285,3.38,7.285,7.435v2.929
		c0,4.13-3.23,7.51-7.285,7.51v-3.604l0,0c2.404,0,4.355-2.028,4.355-4.506v-1.727c0-2.479-1.951-4.431-4.355-4.431V21.419
		L196.407,21.419z M196.407,25.024 M196.407,39.293c-4.057,0-7.285-3.38-7.285-7.51v-2.929c0-4.055,3.229-7.435,7.285-7.435v3.605
		l0,0c-2.404,0-4.355,1.953-4.355,4.431v1.727c0,2.478,1.951,4.506,4.355,4.506V39.293L196.407,39.293z M196.407,35.689"/>
	<rect x="189.948" y="28.704" fill-rule="evenodd" clip-rule="evenodd" fill="#3F0D81" width="12.768" height="2.929"/>
	<path fill-rule="evenodd" clip-rule="evenodd" fill="#3F0D81" d="M210.827,50.033v-3.754c2.477,0.601,5.182,1.051,8.111,1.351
		l-2.254,3.53C214.657,50.859,212.704,50.483,210.827,50.033L210.827,50.033z M210.827,43.5V40.27h7.359l-2.252,3.229H210.827
		L210.827,43.5z M210.827,38.017v-3.305l2.553-0.226c-0.676-0.826-1.053-1.352-1.127-1.727l4.281-0.901
		c1.277,1.877,2.328,3.981,3.154,6.159l-4.131,0.75c-0.225-0.375-0.375-0.825-0.525-1.127L210.827,38.017L210.827,38.017z
		 M210.827,34.187c3.078-3.53,4.955-6.384,5.48-8.637l-4.43-0.676c-0.301,0.901-0.602,1.877-1.051,2.854V34.187L210.827,34.187z
		 M210.827,24.799v-2.854l1.426,0.451C211.878,23.072,211.352,23.898,210.827,24.799L210.827,24.799z M239.364,39.218
		c0.826,1.127,1.727,2.253,2.629,3.38l4.131-1.802c-2.027-2.479-4.281-4.883-6.76-7.21V32.91h3.154l2.254-3.455h-5.408v-4.281
		c2.629-0.3,4.582-0.601,5.783-0.976l-1.127-3.229c-3.83,0.751-9.012,1.427-15.545,1.953l0.9,3.304
		c1.504-0.15,3.305-0.225,5.258-0.451v3.681h-6.158v3.455h5.633c-1.652,3.455-4.207,6.759-7.736,9.837l4.73,1.428
		c1.127-1.127,2.328-2.629,3.531-4.581v11.791h4.73V39.218z M210.827,21.945v2.854c-0.602,0.976-1.354,2.027-2.178,3.229
		c0.525,0.375,0.975,0.676,1.5,1.052c0.227-0.451,0.451-0.902,0.678-1.353v6.459c-0.152,0.225-0.301,0.375-0.451,0.525h0.451v3.305
		l-7.586,0.676c-0.227-0.676-0.451-1.276-0.525-2.028v-1.276l2.553-0.226c0.752-0.901,1.729-1.952,2.854-3.079
		c-1.803-1.652-3.604-2.929-5.482-3.755v0.977v-2.253c0,0.076,0,0.226,0,0.301l2.104-1.953c0.076,0,0.375,0.15,0.75,0.375
		c0.977-1.426,1.879-3.004,2.629-4.731L210.827,21.945L210.827,21.945z M210.827,40.27h-12.168v-1.727l-4.055-0.076v1.803h-10.59
		V43.5h5.859c-1.879,0.825-3.83,1.577-5.859,2.178v3.83c3.455-1.051,6.984-2.554,10.59-4.431v6.458h4.055v-5.933
		c3.23,1.877,7.436,3.38,12.168,4.431v-3.754c-3.004-0.677-5.635-1.578-7.961-2.779h7.961V40.27L210.827,40.27z M184.014,38.017
		v-3.38h0.977c-0.375-0.526-0.6-0.977-0.752-1.202c-0.074,0.075-0.148,0.15-0.225,0.3v-5.933c0.678-1.052,1.203-2.178,1.578-3.154
		l4.281,0.601c-0.602,1.878-2.404,4.506-5.408,8.036l3.906-0.901c0.676,0.901,1.652,2.704,2.102,3.83c0-0.075,0-0.075,0-0.075
		l0.227,0.976c-0.076-0.149-0.076-0.224-0.15-0.3c0-0.075-0.076-0.375,0-0.15l0.299,1.652l-3.979,0.601
		c-0.076-0.45-0.227-0.75-0.377-1.051L184.014,38.017L184.014,38.017z M184.014,24.724c0.525-0.901,0.977-1.727,1.352-2.478
		l-1.352-0.451V24.724z M184.014,21.795v2.929c-0.375,0.601-0.826,1.277-1.201,1.877v-5.182L184.014,21.795L184.014,21.795z
		 M184.014,27.803v5.933c-0.449,0.375-0.75,0.751-1.051,0.977l1.051-0.075v3.38l-1.201,0.074v-9.312
		c0.074,0.075,0.227,0.225,0.301,0.301C183.413,28.629,183.714,28.253,184.014,27.803L184.014,27.803z M184.014,40.27V43.5h-1.201
		V40.27H184.014L184.014,40.27z M184.014,45.677v3.83c-0.449,0.149-0.826,0.3-1.201,0.375v-3.83
		C183.188,45.903,183.565,45.828,184.014,45.677z M182.813,21.419v5.182c-0.301,0.451-0.676,0.977-0.977,1.427
		c0.301,0.225,0.676,0.525,0.977,0.751v9.312l-7.586,0.301c-0.074-0.976-0.375-2.027-0.75-3.154l3.381-0.225
		c1.051-0.902,2.102-1.878,3.229-3.005c-2.254-1.727-4.355-3.079-6.385-4.205l2.404-2.554c0.299,0.15,0.752,0.3,1.502,0.676
		c0.9-1.502,1.801-3.154,2.627-4.957L182.813,21.419L182.813,21.419z M182.813,40.27V43.5h-7.586V40.27H182.813L182.813,40.27z
		 M182.813,46.052v3.83c-1.953,0.601-3.83,1.051-5.707,1.427l-2.404-3.454C177.555,47.405,180.26,46.804,182.813,46.052
		L182.813,46.052z M133.697,42.147v-3.003l1.277,0.3C134.598,40.345,134.148,41.247,133.697,42.147L133.697,42.147z M133.697,33.586
		v-3.455h13.144v-4.056c-4.432,0.075-8.111,0.15-11.116,0.15l-0.526-3.304c4.356,0,9.388-0.15,15.021-0.525
		c5.857-0.301,10.139-0.601,12.918-0.902l0.75,3.229c-2.402,0.375-6.082,0.751-11.039,1.051c-0.375,0-0.752,0-1.127,0v4.356h13.518
		l-2.479,3.455h-11.039v3.755h-4.881v-3.755H133.697L133.697,33.586z M133.697,26.601l0.15-0.15l-0.15-0.15V26.601z M89.462,47.855
		H70.011v3.454h40.029l2.328-3.454H94.569v-7.36h12.167l2.479-3.38H94.569v-6.983h13.744l2.178-3.38H94.569V21.72h-5.107v5.032
		h-9.162c0.75-1.352,1.276-2.779,1.501-4.355l-4.881-0.676c-0.901,3.004-1.877,5.257-3.004,6.834
		c-1.502,1.878-3.38,3.53-5.633,5.107l4.131,2.253c2.253-1.652,4.281-3.604,6.008-5.782h11.04v6.983H74.518v3.38h14.944V47.855
		L89.462,47.855z M133.697,26.301v0.3l-2.854,2.479c-3.38-2.103-6.159-3.605-8.412-4.431l2.779-2.779
		C127.839,22.847,130.618,24.273,133.697,26.301L133.697,26.301z M133.697,30.131v3.455h-0.226v-3.455H133.697L133.697,30.131z
		 M133.697,39.144v3.003c-2.178,3.98-4.806,7.135-7.885,9.538l-4.507-1.728c4.356-3.38,7.36-7.285,9.013-11.565L133.697,39.144
		L133.697,39.144z M122.282,32.91c2.328,0.75,5.182,2.103,8.411,3.905l2.779-2.704c-3.079-1.877-5.932-3.229-8.411-4.13
		L122.282,32.91z"/>
	<path fill-rule="evenodd" clip-rule="evenodd" fill="#3F0D81" d="M149.844,41.02h7.734c1.953,0,3.605,1.804,3.605,3.756l0,0
		c0,2.028-1.652,3.454-3.605,3.454h-7.734v3.681h8.26c3.83,0,7.061-3.229,7.061-7.135l0,0c0-3.83-3.23-7.435-7.061-7.435h-8.26
		V41.02z M142.184,41.02h7.66v-3.679h-8.111c-3.905,0-7.06,3.604-7.06,7.435l0,0c0,3.905,3.154,7.135,7.06,7.135h8.111V48.23h-7.66
		c-2.029,0-3.605-1.426-3.605-3.454l0,0C138.579,42.824,140.155,41.02,142.184,41.02z"/>
	<path fill-rule="evenodd" clip-rule="evenodd" fill="#3F0D81" d="M257.915,21.119L257.915,21.119c6.383,0,11.49,5.183,11.49,11.491
		v16.072h-4.957V35.088c0-5.257-1.201-9.613-6.533-9.613l0,0c-5.258,0-6.535,4.355-6.535,9.613v13.593h-4.955V32.609
		C246.425,26.301,251.606,21.119,257.915,21.119z"/>
	<polygon fill-rule="evenodd" clip-rule="evenodd" fill="#3F0D81" points="243.268,47.78 271.282,47.78 269.329,51.16 
		243.268,51.16 	"/>
	<rect x="248.151" y="30.882" fill-rule="evenodd" clip-rule="evenodd" fill="#3F0D81" width="17.725" height="3.305"/>
	<rect x="248.151" y="39.218" fill-rule="evenodd" clip-rule="evenodd" fill="#3F0D81" width="17.725" height="3.305"/>
	<rect x="194.981" y="18.416" fill-rule="evenodd" clip-rule="evenodd" fill="#3F0D81" width="3.377" height="3.079"/>
	<path fill-rule="evenodd" clip-rule="evenodd" fill="#3F0D81" d="M31.71,61.973c14.795,0,26.886-12.091,26.886-26.811
		c0-14.794-12.091-26.886-26.886-26.886c-14.72,0-26.811,12.092-26.811,26.886C4.899,49.882,16.99,61.973,31.71,61.973z"/>
	<path fill-rule="evenodd" clip-rule="evenodd" fill="#FFFF00" d="M19.618,13.309c4.431-2.479,9.613-3.68,14.27-3.079
		c7.96,0.826,15.396,5.257,19.526,12.542c1.126,1.953-1.953,4.131-3.454,1.728c-2.253-3.68-5.858-6.534-9.539-8.336
		c-2.103-1.051-3.454-1.201-5.708-0.375l-5.933,2.252c-1.276,0.526-0.45,2.779,0.901,2.253c3.004-1.127,4.281-1.577,7.21-2.704
		c2.403-0.977,4.506,3.229,1.728,4.656L6.851,34.938C7.152,26.151,12.258,17.364,19.618,13.309z"/>
	<path fill-rule="evenodd" clip-rule="evenodd" fill="#FFFF00" d="M43.876,56.567c-4.506,2.478-9.613,3.754-14.269,3.079
		c-7.961-0.826-15.396-5.257-19.527-12.467c-1.126-2.027,1.953-4.205,3.455-1.804c2.253,3.682,5.783,6.535,9.538,8.337
		c2.103,1.051,3.455,1.202,5.708,0.376l5.933-2.252c1.276-0.527,0.451-2.779-0.901-2.254c-3.004,1.127-4.28,1.577-7.209,2.704
		c-2.403,0.976-4.506-3.229-1.728-4.657l31.768-12.692C56.343,43.724,51.16,52.511,43.876,56.567z"/>
	<path fill-rule="evenodd" clip-rule="evenodd" fill="#FFFF00" d="M17.215,50.333c-0.225-0.301-0.45-0.526-0.526-0.901
		c-0.15-0.45-0.15-0.826-0.15-1.202v-7.059H13.91l-0.525-0.076l-0.45-0.299c-0.226-0.227-0.376-0.377-0.601-0.677
		c-0.225-0.376-0.301-0.752-0.376-1.277c-0.075-0.675,0.075-1.202,0.3-1.802l0.226-0.301c0.3-0.525,0.601-0.826,1.126-1.051
		c5.182-2.103,10.289-4.281,15.396-6.309c1.052-0.45,2.027-0.75,3.079-0.75c0.826,0,1.578,0.15,2.328,0.375
		c0.751,0.225,1.427,0.601,2.178,0.826c0.225,0.15,0.526,0.225,0.826,0.375v-1.051c0.15-1.126,0.826-1.953,1.877-2.253
		c0.226-0.075,0.451-0.075,0.676-0.15l2.479,0.075l0.525,0.075c0.45,0.226,0.826,0.451,1.126,0.901
		c0.375,0.45,0.526,0.976,0.526,1.502v3.529l5.407,2.929c0.451,0.226,0.751,0.451,0.977,0.901c0.601,0.901,0.676,1.953,0.375,2.93
		L51.16,40.12c-0.149,0.3-0.3,0.45-0.6,0.677l-0.075,0.074h-4.356V40.27h3.229l0,0c0.375,0,0.676-0.226,0.901-0.526
		c0.15-0.225,0.301-0.6,0.301-0.901c0-0.375,0-0.675-0.075-1.051c-0.151-0.526-0.451-0.977-0.977-1.202l-5.858-3.229
		c0-1.352,0-2.704,0-4.055c0-0.375-0.15-0.751-0.375-1.052c-0.301-0.3-0.677-0.526-1.051-0.526h-2.253
		c-0.451,0-0.826,0.226-1.126,0.526c-0.301,0.3-0.451,0.676-0.451,1.052v2.328c-0.901-0.375-1.803-0.751-2.704-1.051
		c-1.276-0.601-2.178-0.901-3.079-0.977c-0.977-0.075-1.953,0.15-3.23,0.676c-3.304,1.277-6.458,2.629-9.688,3.98
		c-1.877,0.751-3.83,1.578-5.708,2.328h0.076c-0.601,0.226-0.977,0.752-1.052,1.428c-0.075,0.225-0.15,0.601-0.075,0.9
		c0.075,0.301,0.149,0.602,0.3,0.826c0.225,0.301,0.525,0.451,0.976,0.451l3.304,0.075c0,1.728,0,7.06,0,7.96
		c0,0.451,0,0.901,0.3,1.277l0,0c0.301,0.375,0.751,0.602,1.803,0.602h6.834v0.976h-7.135c-0.526,0-1.051-0.151-1.578-0.375
		C17.591,50.634,17.441,50.483,17.215,50.333z"/>
</g>
</svg>
